<svg version="1.1" id="Layer_1" xmlns="http://www.w3.org/2000/svg" xmlns:xlink="http://www.w3.org/1999/xlink" x="0px" y="0px"
	 width="100%" viewBox="0 0 1024 1024" enable-background="new 0 0 1024 1024" xml:space="preserve">
<path fill="none" opacity="1.000000" stroke="none" 
	d="
M706.770020,628.783691 
	C693.711792,640.627136 679.974426,650.814270 663.559631,656.784729 
	C656.995361,659.172180 650.324097,661.519226 643.135559,659.617798 
	C636.631348,657.897339 633.452454,653.169495 634.516663,646.573730 
	C636.034241,637.168396 641.519897,629.721191 647.121094,622.487854 
	C662.615417,602.478638 681.434326,585.758789 700.594177,569.430664 
	C710.734558,560.789001 721.068970,552.365540 731.531494,544.117249 
	C734.434631,541.828552 734.370605,540.270081 732.196411,537.708801 
	C726.366211,530.840454 719.032349,525.995117 711.245056,521.748596 
	C688.950562,509.591064 665.011108,501.184387 641.711670,491.317078 
	C638.803711,490.085541 635.894836,488.783142 633.176331,487.189667 
	C619.327942,479.072113 614.150940,465.082458 619.449341,449.905334 
	C623.480347,438.358521 630.469116,428.554504 638.870911,419.911316 
	C668.285706,389.651428 702.893005,367.404419 742.991882,354.030334 
	C751.827332,351.083405 761.011169,349.406799 770.506226,350.638123 
	C782.868835,352.241333 790.230774,362.728699 787.284485,374.757385 
	C786.742432,376.970184 785.574585,378.372345 783.250488,378.475281 
	C780.847290,378.581726 779.566528,377.042786 779.040649,374.957275 
	C778.722351,373.695129 778.840332,372.313751 778.827393,370.985321 
	C778.747070,362.732574 775.787781,359.638672 767.386230,359.197021 
	C755.957947,358.596222 745.265259,361.795410 734.880066,366.004822 
	C704.455261,378.336792 677.198486,395.764771 653.091125,418.010773 
	C644.755859,425.702515 637.227417,434.218597 631.744446,444.284119 
	C630.158447,447.195648 628.648682,450.227661 627.677246,453.381042 
	C623.913330,465.598846 627.464172,474.815002 639.048462,480.345520 
	C650.303955,485.719055 662.038269,490.091919 673.576477,494.870148 
	C690.509644,501.882568 707.457397,508.840790 723.028015,518.702759 
	C730.139709,523.207031 736.227295,528.776489 741.241638,535.173767 
	C743.125488,535.521851 744.010681,534.345276 745.025940,533.571106 
	C762.246704,520.439026 779.412537,507.232391 797.453552,495.223114 
	C798.627563,494.441650 799.367554,493.527588 799.691528,492.105316 
	C804.012573,473.137543 808.390564,454.182709 812.711487,435.214874 
	C812.961304,434.118195 812.841797,432.937378 812.889099,431.904541 
	C811.085205,430.454346 809.188904,431.025330 807.413940,431.058502 
	C787.758667,431.426117 768.104248,431.838379 748.449524,432.233917 
	C747.283447,432.257385 746.116150,432.262360 744.950134,432.238647 
	C741.963379,432.178040 739.487488,431.206665 739.558777,427.760468 
	C739.624878,424.569855 742.049500,423.768158 744.798889,423.674225 
	C751.953552,423.429840 759.106750,423.126526 766.262939,422.941986 
	C781.082458,422.559814 795.902344,422.131531 810.724854,421.967285 
	C814.579651,421.924561 816.275391,420.567657 817.165588,416.781708 
	C819.790894,405.616669 822.817993,394.546112 825.694519,383.440308 
	C825.944763,382.473846 826.244934,381.520386 826.519165,380.560120 
	C827.410950,377.437286 828.309998,373.787781 832.608826,375.087311 
	C836.844116,376.367645 835.616394,380.042542 834.846436,383.108582 
	C832.780579,391.334534 830.597534,399.530975 828.517273,407.753387 
	C827.429138,412.054443 826.459229,416.385437 825.213318,421.641876 
	C831.301453,421.641876 836.735901,421.915833 842.135071,421.595673 
	C869.276367,419.986267 896.441467,420.966400 923.593628,420.655426 
	C932.138794,420.557556 931.057068,422.055389 933.678345,412.637360 
	C938.410461,395.635559 942.790039,378.501434 951.698242,363.012787 
	C953.200378,360.401031 954.825195,357.868835 957.105652,355.876221 
	C959.195496,354.050049 961.595825,352.807312 964.426086,354.037628 
	C967.191528,355.239807 968.089111,357.688324 968.310791,360.521301 
	C968.775269,366.455994 967.335876,372.101410 965.747253,377.718445 
	C962.238342,390.125641 956.860413,401.749054 950.862610,413.115082 
	C949.576416,415.552338 947.855103,417.865143 947.724060,421.055634 
	C951.360474,421.663849 954.790833,422.065094 958.131775,422.848022 
	C961.098511,423.543243 963.711243,425.157043 962.560547,428.751923 
	C961.564819,431.862457 958.957581,432.339111 956.017822,431.242126 
	C952.331543,429.866516 948.446045,430.315369 944.637695,430.057800 
	C942.627747,429.921875 941.133484,430.648560 940.032837,432.403351 
	C938.088623,435.503082 936.086426,438.490326 935.193604,442.178131 
	C921.768311,497.633209 909.082886,553.245850 899.216614,609.465210 
	C898.474060,613.696411 896.568237,617.771301 899.882080,622.135559 
	C901.814514,624.680542 897.627380,633.234497 894.521606,634.646362 
	C891.123230,636.191101 888.042053,633.805725 887.834717,629.142944 
	C887.529175,622.274048 888.978394,615.549316 890.188599,608.853821 
	C895.954651,576.953247 902.561768,545.220093 909.520081,513.559509 
	C909.764771,512.446228 909.799683,511.286804 910.024048,509.363007 
	C902.348022,513.614014 896.078125,518.737244 889.606384,523.529968 
	C880.360413,530.377319 871.849792,538.112793 863.225769,545.713501 
	C860.416077,548.189697 858.977478,551.095520 858.403748,554.671204 
	C852.573242,591.011292 844.855652,626.930969 834.136536,662.163940 
	C829.667725,676.852661 824.051758,691.098450 816.459229,704.484497 
	C813.575928,709.567932 810.286926,714.399170 805.237488,717.693909 
	C799.154663,721.663025 793.829712,720.780884 789.656250,714.839355 
	C784.839233,707.981506 783.939514,699.934937 783.826660,691.946899 
	C783.511475,669.641541 788.789368,648.311340 797.090393,627.847656 
	C808.523254,599.663208 824.633240,574.259338 845.409119,551.958191 
	C849.152100,547.940491 851.913330,543.918274 852.530273,538.191650 
	C853.518555,529.018555 855.271545,519.927856 856.863708,509.765564 
	C852.784485,514.922180 849.593506,519.366516 845.969177,523.423523 
	C842.241333,527.596436 837.895569,531.325928 831.686890,529.351135 
	C825.383179,527.346008 823.453247,521.809753 822.780762,516.037170 
	C821.540588,505.391998 823.749390,495.182953 827.713440,485.310638 
	C828.741272,482.750946 830.328308,480.720856 833.338562,481.780334 
	C836.605957,482.930267 836.494202,485.625305 835.557800,488.431427 
	C833.127625,495.714355 830.880615,503.036316 831.234741,510.858368 
	C831.279968,511.857056 831.206665,512.869507 831.343506,513.854004 
	C831.681030,516.282288 831.437134,519.383118 834.135559,520.321594 
	C836.912048,521.287231 838.625854,518.686157 840.178711,516.796936 
	C846.539001,509.058868 851.921997,500.629791 857.304077,492.204834 
	C858.200684,490.801361 859.031006,489.355011 859.944946,487.963226 
	C861.191101,486.065735 862.686890,484.415192 865.246338,485.231995 
	C867.961487,486.098511 868.569763,488.354523 868.261292,490.857605 
	C867.488892,497.125580 866.668274,503.389130 865.750549,509.637360 
	C864.595886,517.498962 863.325439,525.343567 861.995728,533.898193 
	C865.989441,532.326904 867.937012,529.333679 870.522339,527.235474 
	C882.954041,517.146423 895.768982,507.583618 909.290771,499.010803 
	C912.194458,497.169861 913.802795,494.911133 914.562927,491.636749 
	C919.039368,472.352386 923.525085,453.069031 928.225891,433.838684 
	C929.363831,429.183228 926.805237,429.304749 923.686218,429.280518 
	C895.525085,429.061951 867.371826,429.488281 839.220947,430.195892 
	C835.723206,430.283783 832.192078,430.546204 828.730286,430.195618 
	C824.099426,429.726715 822.325439,431.803040 821.383362,436.092590 
	C812.996948,474.278564 803.930481,512.312012 796.245178,550.656189 
	C790.002930,581.800659 783.201355,612.834351 778.705505,644.303162 
	C778.221924,647.687805 777.367126,650.853455 779.957886,654.205139 
	C782.319763,657.260620 777.842834,666.178833 774.093201,667.034058 
	C770.716248,667.804260 767.677979,664.560059 768.016418,659.762085 
	C768.448120,653.640564 769.294495,647.535400 770.229797,641.464478 
	C777.017517,597.404053 786.685852,553.901794 795.739929,510.280701 
	C795.935364,509.339233 796.027405,508.376312 796.311523,506.445465 
	C784.534668,515.118225 773.434631,523.290710 762.337646,531.467285 
	C761.130554,532.356628 760.035828,533.449402 758.727234,534.142334 
	C749.119690,539.229431 745.732971,546.382202 745.896362,557.899170 
	C746.127380,574.193787 737.747314,588.530090 729.104187,602.149109 
	C722.909180,611.910645 715.210693,620.433044 706.770020,628.783691 
M807.046997,626.494446 
	C800.001526,642.257751 795.512634,658.788574 793.629639,675.880981 
	C792.526062,685.898315 791.710693,696.157043 795.007812,706.064026 
	C796.893921,711.731079 799.324829,712.246826 803.417480,707.838135 
	C809.060547,701.759216 812.479370,694.321472 815.678650,686.810425 
	C827.992920,657.900146 834.948425,627.428406 841.699890,596.904663 
	C844.212646,585.544800 846.525085,574.144653 848.334900,561.552673 
	C831.086853,581.611328 817.624756,602.690735 807.046997,626.494446 
M719.375000,564.891296 
	C700.661865,580.457336 682.320740,596.437256 665.694763,614.261902 
	C657.618652,622.920227 649.829407,631.853210 644.744934,642.721863 
	C643.638306,645.087463 642.099121,647.848511 644.194580,650.213806 
	C646.014893,652.268616 648.728455,651.630005 651.262390,651.138550 
	C665.413452,648.393921 677.293091,641.062744 688.425659,632.451538 
	C712.249573,614.023438 730.192505,591.455017 737.164062,561.423523 
	C737.937012,558.093628 738.269287,554.720276 737.235229,550.561768 
	C731.063171,555.519775 725.501099,559.987793 719.375000,564.891296 
M952.408752,381.902985 
	C950.645081,387.303131 948.881348,392.703247 947.117615,398.103394 
	C952.882263,389.392456 955.860046,379.686707 958.024292,369.645477 
	C956.243408,373.491425 954.462524,377.337372 952.408752,381.902985 
z"/>
<path fill="#000000" opacity="1.000000" stroke="none" 
	d="
M370.831238,407.042542 
	C374.319672,392.104492 377.724854,377.576935 381.359161,362.071808 
	C366.593475,368.542542 353.612579,375.871155 341.804901,385.169830 
	C332.478516,392.514404 323.923401,400.666351 317.409698,410.715393 
	C308.612335,424.287567 304.841492,438.536041 311.602814,454.223663 
	C312.791687,456.982025 313.204102,460.018402 309.644958,461.381348 
	C306.317291,462.655609 304.837738,460.158569 303.708679,457.587402 
	C296.640320,441.490723 298.806152,425.941010 307.140350,411.100891 
	C317.705292,392.288757 333.778351,378.930389 351.714600,367.565948 
	C360.600037,361.936188 369.859894,357.017883 379.648438,353.162567 
	C382.707275,351.957825 384.589233,350.234619 385.145264,346.823700 
	C385.566437,344.239746 386.365570,341.277527 389.833771,341.266327 
	C393.187134,341.255493 393.957123,344.081818 394.783417,347.028961 
	C403.445007,345.191132 411.828583,342.526154 420.520447,341.255157 
	C431.647614,339.628021 442.707489,339.264435 453.733673,341.917542 
	C479.154175,348.034180 489.797668,366.172180 487.647522,390.868439 
	C485.432800,416.306854 474.807770,438.975342 462.829712,460.975006 
	C452.060120,480.755005 438.385773,498.292969 419.965729,511.710754 
	C414.698273,515.547729 409.122528,518.853455 403.121338,521.425110 
	C383.091125,530.008423 369.297607,527.168030 354.528809,511.051056 
	C344.377716,552.624878 334.569885,593.928833 326.577362,635.760803 
	C334.000671,636.012573 335.461884,638.295471 332.540527,644.449280 
	C330.974274,647.748474 329.219604,650.979675 327.282013,654.073792 
	C325.888275,656.299438 323.746033,657.727417 320.922638,656.952881 
	C318.095490,656.177368 317.120880,653.838074 316.875641,651.223938 
	C316.149353,643.483215 317.861145,635.944946 319.266602,628.446350 
	C327.324768,585.453125 337.830658,543.003723 348.055511,500.495483 
	C355.521301,469.457672 363.176971,438.465515 370.831238,407.042542 
M460.821930,446.328827 
	C462.894226,441.783325 465.111145,437.297363 467.011963,432.681244 
	C472.980103,418.187744 478.403137,403.562347 479.063873,387.608795 
	C480.051605,363.759247 467.274078,351.382904 443.331787,349.342560 
	C427.126556,347.961578 411.567902,351.379852 396.224792,356.232941 
	C393.042938,357.239410 391.301056,358.865448 390.493134,362.215607 
	C380.550293,403.442749 370.470703,444.636841 360.469818,485.850037 
	C359.689514,489.065552 358.337311,492.487000 358.778778,495.595795 
	C360.900635,510.538086 370.507996,517.997070 385.626526,517.002563 
	C397.824371,516.200317 407.785248,510.155090 417.110382,503.008209 
	C436.466736,488.173218 449.603455,468.434570 460.821930,446.328827 
z"/>
<path fill="#000000" opacity="1.000000" stroke="none" 
	d="
M486.178833,452.884979 
	C492.840881,451.197296 496.127167,453.679779 496.364227,460.004028 
	C496.551941,465.012207 494.617615,469.445831 492.843658,473.925201 
	C489.611847,482.085693 485.209137,489.701996 481.032623,497.881348 
	C484.428986,498.555298 486.885773,497.572784 489.149719,496.282806 
	C493.920044,493.564636 498.563385,490.624664 503.300903,487.847504 
	C506.065125,486.227051 508.953949,484.543030 512.065308,487.016327 
	C515.124451,489.448181 514.390442,492.576355 513.373840,495.703369 
	C507.607269,513.440796 502.377167,531.326904 498.842712,549.661499 
	C497.562714,556.301331 496.478546,562.990540 497.780792,569.796387 
	C500.977020,570.251282 502.333801,568.068726 503.896851,566.516357 
	C516.697815,553.802429 525.563171,538.303528 534.439819,522.846558 
	C537.919861,516.786743 541.056580,510.513367 544.042114,504.191925 
	C545.958984,500.133148 548.332336,496.710205 552.569092,494.931000 
	C555.391785,493.745575 557.362793,491.762329 559.308716,489.389130 
	C564.906616,482.562042 573.183655,483.865784 576.914551,491.926453 
	C579.899841,498.376038 579.622681,505.261688 579.274109,512.073608 
	C579.042847,516.592773 580.348267,518.006042 585.008301,516.991882 
	C592.117249,515.444763 597.941101,511.812103 603.241455,507.142975 
	C605.734924,504.946472 607.962402,502.446655 610.293640,500.067810 
	C612.137634,498.186066 614.247559,497.370239 616.501892,499.119995 
	C618.787292,500.893799 618.637878,503.310699 616.971680,505.317841 
	C607.521301,516.701965 596.356750,525.327881 580.827026,525.844604 
	C577.727844,525.947693 575.942993,526.618591 574.515015,529.313904 
	C572.861816,532.434265 570.381531,534.933716 567.361511,536.843872 
	C559.138916,542.044495 550.598267,540.225525 545.190063,532.164612 
	C544.283752,530.813782 543.918335,529.062622 541.869263,527.865234 
	C540.005737,530.949890 538.139282,534.023743 536.287964,537.106812 
	C530.194702,547.254150 523.816711,557.203430 516.163513,566.275696 
	C512.708496,570.371338 508.975922,574.171753 504.366486,576.968140 
	C496.415253,581.791931 489.676117,578.474243 488.787109,569.151978 
	C488.120087,562.157471 488.720886,555.167725 490.221039,548.309143 
	C492.031342,540.032349 493.920502,531.766785 496.045135,523.566223 
	C498.161926,515.396240 500.612488,507.312683 503.088654,498.585175 
	C498.333771,501.233704 494.311829,503.850006 489.770325,505.473236 
	C482.801392,507.964050 476.064514,508.491577 469.962372,503.400513 
	C463.592529,498.086090 462.324005,490.928894 463.994751,483.404846 
	C466.909180,470.279602 474.379547,460.161499 486.178833,452.884979 
M556.200623,530.535950 
	C561.586243,531.808899 564.504944,528.369019 567.236511,524.681335 
	C568.056396,523.574463 568.565430,522.220520 566.999573,521.243896 
	C560.881348,517.427979 556.882141,512.001587 555.245422,504.433441 
	C548.293152,513.466370 548.661743,524.281250 556.200623,530.535950 
M473.239960,491.903442 
	C479.935089,483.367859 483.776489,473.498871 487.515350,462.296997 
	C485.580048,463.916534 484.443848,464.632324 483.606659,465.605408 
	C477.179688,473.075623 470.729584,480.561859 473.239960,491.903442 
M568.130310,494.785919 
	C563.732117,495.045319 564.221924,498.586029 564.115112,501.294067 
	C563.933472,505.900818 565.498108,509.762268 570.510376,512.200439 
	C570.902832,505.998291 571.408630,500.464325 568.130310,494.785919 
z"/>
<path fill="#000000" opacity="1.000000" stroke="none" 
	d="
M101.648376,395.737732 
	C106.296761,380.720886 111.133980,366.187897 117.009560,352.032349 
	C118.403603,348.673737 120.352814,345.523010 122.262985,342.409393 
	C123.459465,340.459076 125.352890,339.378632 127.799057,339.850281 
	C130.198410,340.312897 131.510773,341.943176 132.186707,344.149139 
	C134.057419,350.254303 133.202774,356.368195 132.012543,362.431732 
	C131.618439,364.439453 129.989731,365.421753 127.882355,365.299469 
	C124.670059,365.113098 123.776756,362.944916 123.587204,359.258057 
	C117.370522,375.171967 112.274429,390.556244 107.584160,406.060760 
	C87.971817,470.892853 70.578636,536.329102 54.663040,602.159851 
	C53.261074,607.958679 51.957645,613.817932 52.269329,619.902893 
	C52.608986,626.533936 54.656952,628.483521 61.337795,627.920105 
	C67.440048,627.405457 72.881752,624.829041 78.299614,622.250610 
	C99.225288,612.291748 118.704681,599.638855 139.435089,589.329712 
	C153.599258,582.285767 167.825897,575.233337 183.847794,573.292664 
	C186.306351,572.994934 188.844818,572.867554 191.294632,573.134949 
	C193.428741,573.367981 195.010956,574.833313 194.961472,577.186462 
	C194.913086,579.487793 193.428802,581.038696 191.227341,581.187256 
	C166.361404,582.864868 145.937912,595.869324 124.853027,607.152100 
	C111.493340,614.301086 98.273605,621.711487 84.917854,628.867859 
	C77.988991,632.580505 70.647675,635.328613 62.882629,636.718018 
	C51.473709,638.759521 44.073063,632.615479 43.596188,621.080444 
	C43.133675,609.893005 46.277843,599.294128 48.918083,588.672363 
	C64.972382,524.085327 82.197159,459.813629 101.648376,395.737732 
z"/>
<path fill="#000000" opacity="1.000000" stroke="none" 
	d="
M171.451096,527.184875 
	C171.840775,530.735107 171.948318,533.943481 172.761261,536.961914 
	C174.594421,543.768433 179.623795,546.186707 186.221161,543.656921 
	C192.435852,541.273926 197.209808,536.773743 201.929123,532.341980 
	C211.306885,523.535645 219.370865,513.561157 226.904160,503.159180 
	C229.853683,499.086517 232.790710,495.076111 237.915390,493.482666 
	C239.506195,492.988007 239.899063,491.323669 240.782028,490.149597 
	C246.562927,482.462646 255.500916,483.489563 259.161530,492.406708 
	C261.733459,498.671875 262.272644,505.286346 261.580475,512.000000 
	C261.028381,517.355408 261.595367,517.859070 266.867523,516.941650 
	C276.415131,515.280151 283.364319,509.423126 289.863373,502.821045 
	C290.914062,501.753693 291.857758,500.575684 292.953033,499.558807 
	C294.779633,497.862976 296.845947,497.577118 298.789276,499.254547 
	C300.750977,500.947906 300.839630,503.223572 299.287598,505.076202 
	C289.703003,516.516724 278.548553,525.429443 262.770111,525.881226 
	C259.913391,525.963013 258.187714,526.531860 256.743866,529.042664 
	C255.521118,531.168823 253.813828,533.106750 252.007141,534.791382 
	C243.038071,543.154541 231.308029,540.848755 226.108063,529.748230 
	C225.129028,527.658264 224.430344,525.436951 223.463242,522.913391 
	C220.225220,524.808411 218.260101,527.683472 216.064713,530.253479 
	C209.742371,537.654663 202.517136,544.057617 194.367432,549.306763 
	C180.093445,558.500488 166.708755,552.461731 163.552109,535.721069 
	C161.303131,523.794189 164.667831,512.591187 168.002350,501.468781 
	C171.216263,490.748627 175.592072,480.471588 182.850891,471.714081 
	C185.627151,468.364655 188.583344,465.179016 192.811142,463.616638 
	C198.666443,461.452759 203.806503,465.622589 202.703827,471.791595 
	C201.296570,479.664459 196.407730,485.645111 191.332489,491.413849 
	C188.587540,494.533844 185.849869,497.867432 182.477554,500.186493 
	C174.726913,505.516418 173.162720,513.439026 172.202850,521.813660 
	C172.013336,523.466980 171.729492,525.109375 171.451096,527.184875 
M238.445709,508.205505 
	C237.737396,507.353210 238.201599,505.845856 236.886261,505.311890 
	C232.006104,510.963654 230.839706,520.595398 234.256393,526.782166 
	C236.407471,530.677246 240.256271,532.032898 243.925980,529.872864 
	C246.797989,528.182312 249.277115,525.967224 250.170776,522.235657 
	C245.349838,518.629883 240.865585,514.700073 238.445709,508.205505 
M251.409622,496.507538 
	C250.295456,494.091583 249.040222,493.976318 247.531708,496.208679 
	C244.233444,501.089661 246.686188,508.873932 252.552567,511.546661 
	C252.983643,506.673859 253.034561,501.915649 251.409622,496.507538 
z"/>
<path fill="#000000" opacity="1.000000" stroke="none" 
	d="
M953.918457,498.924866 
	C941.102905,508.350189 940.777710,521.598206 942.370789,535.051025 
	C943.460754,544.255493 949.580261,547.070068 957.911682,542.859070 
	C964.209045,539.676208 969.420654,534.909790 974.324524,529.919922 
	C982.388123,521.714661 989.805481,512.939148 996.444092,503.524048 
	C997.403442,502.163391 998.415955,500.838196 999.446777,499.530457 
	C1001.197571,497.309479 1003.444946,496.191162 1005.933044,497.996704 
	C1008.478760,499.844116 1007.950989,502.460602 1006.350891,504.643707 
	C1001.823730,510.820312 997.376953,517.080811 992.461975,522.942261 
	C984.860657,532.007324 976.858154,540.729431 967.051331,547.547791 
	C962.492981,550.717041 957.772217,553.369324 951.948303,553.402710 
	C943.984863,553.448425 938.392151,549.777344 935.342957,542.301453 
	C931.651062,533.249695 932.441223,524.064819 934.435425,514.830566 
	C937.693909,499.741852 942.349731,485.230621 951.896790,472.757385 
	C954.544373,469.298309 957.470947,466.119995 961.449402,464.118378 
	C964.331116,462.668579 967.229309,462.347137 969.925476,464.415344 
	C972.586487,466.456482 973.172119,469.263153 972.518738,472.462708 
	C971.023438,479.784058 966.481995,485.352783 961.857727,490.822601 
	C959.498962,493.612732 956.745422,496.069000 953.918457,498.924866 
z"/>
</svg>